<svg width="91" height="16" viewBox="0 0 91 16" fill="none" xmlns="http://www.w3.org/2000/svg">
<path d="M0 0.393768H3.90688V12.1341H11.0622V15.365H0V0.393768Z" fill="#D62E2E"/>
<path d="M13.8994 10.4803C14.5622 11.0447 15.3387 11.5019 16.2291 11.8519C17.1172 12.2019 18.0316 12.3725 18.9722 12.3594C19.5978 12.3463 20.055 12.2544 20.3437 12.0772C20.6325 11.9022 20.7747 11.6397 20.7747 11.2875C20.7747 10.8741 20.6084 10.5438 20.2759 10.2922C19.9434 10.0428 19.39 9.81096 18.6134 9.59659C17.9506 9.40846 17.2681 9.20502 16.5659 8.98627C15.8637 8.76752 15.225 8.47659 14.6497 8.11346C14.0744 7.75034 13.6019 7.28659 13.2322 6.7244C12.8625 6.16002 12.6787 5.43596 12.6787 4.54565C12.6787 3.75596 12.8319 3.07783 13.1381 2.5069C13.4444 1.93815 13.8644 1.46783 14.3959 1.09815C14.9275 0.728459 15.5487 0.457209 16.2553 0.280021C16.9619 0.105021 17.71 0.0175209 18.4997 0.0175209C19.0509 0.0175209 19.5737 0.0547084 20.0681 0.131271C20.5625 0.205646 21.0503 0.321584 21.5337 0.479084C22.015 0.636584 22.4919 0.833459 22.9622 1.0719C23.4325 1.31033 23.9159 1.5969 24.4169 1.93596L22.8769 4.94158C22.2753 4.47783 21.6125 4.11471 20.8862 3.85221C20.16 3.58971 19.3966 3.44533 18.5937 3.42127C18.3312 3.40815 18.0841 3.41908 17.8522 3.44971C17.6203 3.48033 17.4169 3.53721 17.2419 3.61815C17.0669 3.69908 16.9247 3.80408 16.8197 3.92877C16.7125 4.05346 16.66 4.21096 16.66 4.39908C16.66 4.58721 16.6884 4.75346 16.7453 4.89783C16.8022 5.04221 16.9116 5.17565 17.0734 5.30252C17.2353 5.42721 17.4716 5.55408 17.7778 5.67877C18.0841 5.80346 18.4953 5.93471 19.0072 6.07252C19.8078 6.29784 20.5625 6.5319 21.2712 6.7769C21.9778 7.0219 22.5947 7.32815 23.1219 7.69783C23.6469 8.06752 24.0603 8.5269 24.3622 9.07815C24.6619 9.6294 24.8128 10.325 24.8128 11.1628C24.8128 11.9394 24.6619 12.6153 24.3622 13.1906C24.0625 13.766 23.6425 14.2428 23.1044 14.6169C22.5662 14.9931 21.9275 15.2731 21.1881 15.4613C20.4487 15.6494 19.6416 15.7435 18.7644 15.7435C17.5131 15.7435 16.345 15.5553 15.2622 15.1791C14.1794 14.8028 13.1731 14.2844 12.2478 13.6194L13.9016 10.4825L13.8994 10.4803Z" fill="#1D344F"/>
<path d="M40.2325 3.62471V15.3628H36.3257V3.62471H31.5744V0.393768H44.986V3.62471H40.2347H40.2325Z" fill="#1D344F"/>
<path d="M58.1503 6.10533V9.33627H50.7697V12.1538H58.695V15.365H46.8628V0.393768H58.5069V3.62471H50.7675V6.10314H58.1481L58.1503 6.10533Z" fill="#1D344F"/>
<path d="M60.5544 7.87063C60.5544 6.71781 60.7644 5.66125 61.1844 4.69656C61.6044 3.73188 62.1797 2.90281 62.9125 2.20719C63.6454 1.51156 64.5116 0.97125 65.5135 0.581875C66.5153 0.194688 67.5916 0 68.7444 0C70.2975 0 71.6363 0.317188 72.7629 0.949375C73.8894 1.58156 74.9044 2.51781 75.8057 3.75813L73.2332 5.91719C72.7694 5.09031 72.1854 4.43406 71.4766 3.94406C70.77 3.45625 69.8885 3.21125 68.8385 3.21125C68.1866 3.21125 67.5916 3.33156 67.0535 3.56781C66.5154 3.80625 66.056 4.13438 65.6732 4.55438C65.2904 4.97438 64.9929 5.46875 64.7807 6.0375C64.5685 6.60625 64.4613 7.21875 64.4613 7.86844C64.4613 8.51813 64.5641 9.12625 64.7719 9.69063C64.9775 10.255 65.275 10.745 65.6644 11.165C66.0516 11.585 66.5197 11.9131 67.0644 12.1516C67.6091 12.39 68.2128 12.5081 68.8778 12.5081C69.416 12.5081 69.9016 12.4447 70.3325 12.32C70.7635 12.1953 71.1594 12.0138 71.516 11.7753C71.8725 11.5369 72.1985 11.2481 72.4938 10.9113C72.7869 10.5722 73.0604 10.1916 73.3119 9.765L75.8275 12.0006C74.9766 13.1906 73.9835 14.1094 72.8504 14.7613C71.7172 15.4131 70.35 15.7369 68.7466 15.7369C67.5938 15.7369 66.5175 15.5422 65.5157 15.155C64.5138 14.7678 63.6475 14.2253 62.9147 13.5297C62.1819 12.8341 61.6066 12.005 61.1866 11.0403C60.7666 10.0756 60.5566 9.01906 60.5566 7.86625L60.5544 7.87063Z" fill="#1D344F"/>
<path d="M87.0931 15.365V8.35846L81.4778 9.89846V15.365H77.5709V0.393768H81.4778V6.68721L87.0931 5.12752V0.393768H91V15.365H87.0931Z" fill="#1D344F"/>
</svg>
