<svg width="24" height="24" viewBox="0 0 24 24" fill="none" xmlns="http://www.w3.org/2000/svg">
<path d="M17.29 9.31C17.1975 9.2173 17.0876 9.14375 16.9666 9.09357C16.8456 9.04339 16.7159 9.01756 16.585 9.01756C16.454 9.01756 16.3243 9.04339 16.2034 9.09357C16.0824 9.14375 15.9725 9.2173 15.88 9.31L12 13.19L8.11998 9.31C7.933 9.12302 7.67941 9.01798 7.41498 9.01798C7.15055 9.01798 6.89695 9.12302 6.70998 9.31C6.523 9.49698 6.41796 9.75057 6.41796 10.015C6.41796 10.2794 6.523 10.533 6.70998 10.72L11.3 15.31C11.3925 15.4027 11.5024 15.4763 11.6234 15.5264C11.7443 15.5766 11.874 15.6024 12.005 15.6024C12.1359 15.6024 12.2656 15.5766 12.3866 15.5264C12.5076 15.4763 12.6175 15.4027 12.71 15.31L17.3 10.72C17.68 10.34 17.68 9.7 17.29 9.31Z" fill="#222222"/>
</svg>
